# AST/ASF file generated using VICON BodyLanguage
# -----------------------------------------------
:version 1.10
:name VICON
:units
  mass 1.0
  length 0.45
  angle deg
:documentation
   .ast/.asf automatically generated from VICON data using
   VICON BodyBuilder and BodyLanguage model FoxedUp or BRILLIANT.MOD
:root
   order TX TY TZ RX RY RZ
   axis XYZ
   position 0 0 0  
   orientation 0 0 0 
:bonedata
  begin
     id 1 
     name lhipjoint
     direction 0.561001 -0.76473 0.316963 
     length 2.4722 
     axis 0 0 0  XYZ
  end
  begin
     id 2 
     name lfemur
     direction 0.34202 -0.939693 0  
     length 7.59403  
     axis 0 0 20  XYZ
    dof rx ry rz
    limits (-160.0 20.0)
           (-70.0 70.0)
           (-60.0 70.0)
  end
  begin
     id 3 
     name ltibia
     direction 0.34202 -0.939693 0   
     length 7.89655   
     axis 0 0 20   XYZ
    dof rx
    limits (-10.0 170.0)
  end
  begin
     id 4 
     name lfoot
     direction 0.061296 -0.168409 0.98381   
     length 2.73287   
     axis -90 7.62852e-016 20   XYZ
    dof rx rz
    limits (-45.0 90.0)
           (-70.0 20.0)
  end
  begin
     id 5 
     name ltoes
     direction 1.53547e-011 -4.21984e-011 1   
     length 1.37057   
     axis -90 7.62852e-016 20   XYZ
    dof rx
    limits (-90.0 20.0)
  end
  begin
     id 6 
     name rhipjoint
     direction -0.559611 -0.765599 0.317323   
     length 2.46939  
     axis 0 0 0  XYZ 
  end
  begin
     id 7 
     name rfemur
     direction -0.34202 -0.939693 0   
     length 7.53712   
     axis 0 0 -20   XYZ
    dof rx ry rz
    limits (-160.0 20.0)
           (-70.0 70.0)
           (-70.0 60.0)
  end
  begin
     id 8 
     name rtibia
     direction -0.34202 -0.939693 0   
     length 8.12549   
     axis 0 0 -20   XYZ
    dof rx
    limits (-10.0 170.0)
 end
 begin
     id 9 
     name rfoot
     direction -0.066984 -0.184037 0.980634   
     length 2.67541  
     axis -90 -7.62852e-016 -20   XYZ
    dof rx rz
    limits (-45.0 90.0)
           (-20.0 70.0)
  end
  begin
     id 10 
     name rtoes
     direction -1.53549e-011 -4.21786e-011 1   
     length 1.34085   
     axis -90 -7.62852e-016 -20   XYZ
    dof rx
    limits (-90.0 20.0)
  end
  begin
     id 11 
     name lowerback
     direction -0.0522728 0.992594 -0.109658   
     length 2.05633   
     axis 0 0 0   XYZ
    dof rx ry rz
    limits (-20.0 45.0)
           (-30.0 30.0)
           (-30.0 30.0)
  end
  begin
     id 12 
     name upperback
     direction 0.00589338 0.999977 0.00335704   
     length 2.05845   
     axis 0 0 0   XYZ
    dof rx ry rz
    limits (-20.0 45.0)
           (-30.0 30.0)
           (-30.0 30.0)
  end
  begin
     id 13 
     name thorax
     direction 0.0292928 0.998059 0.0549487   
     length 2.09281   
     axis 0 0 0   XYZ
    dof rx ry rz
    limits (-20.0 45.0)
           (-30.0 30.0)
           (-30.0 30.0)
  end
  begin
     id 14 
     name lowerneck
     direction 0.0356368 0.980775 0.191858   
     length 1.84767   
     axis 0 0 0   XYZ
    dof rx ry rz
    limits (-20.0 45.0)
           (-30.0 30.0)
           (-30.0 30.0)
  end
  begin
     id 15 
     name upperneck
     direction -0.0227605 0.98931 -0.14404   
     length 1.89582   
     axis 0 0 0   XYZ
    dof rx ry rz
    limits (-20.0 45.0)
           (-30.0 30.0)
           (-30.0 30.0)
  end
  begin
     id 16
     name head
     direction -0.00932985 0.997511 -0.0698904  
     length 1.90213  
     axis 0 0 0   XYZ
    dof rx ry rz
    limits (-20.0 45.0)
           (-30.0 30.0)
           (-30.0 30.0)
  end
  begin
     id 17 
     name lclavicle
     direction 0.873442 0.479511 0.0846686  
     length 3.41193  
     axis 0 0 0   XYZ
    dof ry rz
    limits (-20.0 10.0)
           (0.0 20.0)
  end
  begin
     id 18 
     name lhumerus
     direction 1 -4.4897e-011 -5.62117e-018   
     length 5.59864   
     axis 180 -30 -90   XYZ
    dof rx ry rz
    limits (-60.0 90.0)
           (-90.0 90.0)
           (-90.0 90.0)
  end
  begin
     id 19
     name lradius
     direction 1 -4.48966e-011 -6.26295e-027   
     length 3.59542   
     axis 180 -30 -90   XYZ
    dof rx
    limits (-10.0 170.0)
  end
  begin
     id 20
     name lwrist
     direction 1 -4.48947e-011 -1.74096e-026   
     length 1.79771   
     axis 1.04567e-014 90 90   XYZ
    dof ry
    limits (-180.0 0.0)
 end
  begin
     id 21 
     name lhand
     direction 1 -4.49085e-011 -3.48469e-026   
     length 0.572014   
     axis 2.22196e-014 90 90   XYZ
    dof rx rz
    limits (-90.0 90.0)
           (-45.0 45.0)
  end
  begin
     id 22 
     name lfingers
     direction 1 -4.48884e-011 -6.96135e-026   
     length 0.461173   
     axis 4.44383e-014 90 90   XYZ
    dof rx
    limits (0.0 90.0)
  end
  begin
     id 23
     name lthumb
     direction 0.707107 -6.34976e-011 0.707107   
     length 0.662154   
     axis -90 45 -5.4397e-014   XYZ
    dof rx rz
    limits (-45.0 45.0)
           (-45.0 45.0)
  end
  begin
     id 24 
     name rclavicle
     direction -0.890242 0.443271 0.104786   
     length 3.46753  
     axis 0 0 0   XYZ 
    dof ry rz
    limits (-10.0 20.0)
           (-20.0 0.0)
  end
  begin
     id 25 
     name rhumerus
     direction -1 -4.48963e-011 -5.41723e-018  
     length 5.8094   
     axis 180 30 90   XYZ
    dof rx ry rz
    limits (-90.0 60.0)
           (-90.0 90.0)
           (-90.0 90.0)
  end
  begin
     id 26 
     name rradius
     direction -1 -4.48958e-011 -6.51059e-027   
     length 3.66953   
     axis 180 30 90   XYZ
    dof rx
    limits (-10.0 170.0)
  end
  begin
     id 27 
     name rwrist
     direction -1 -4.48975e-011 -1.74124e-026   
     length 1.83476   
     axis 1.04567e-014 -90 -90   XYZ
    dof ry
    limits (-180.0 0.0)
  end
  begin
     id 28
     name rhand
     direction -1 -4.49013e-011 -3.48326e-026   
     length 0.57843   
     axis 2.22196e-014 -90 -90   XYZ
    dof rx rz
    limits (-90.0 90.0)
           (-45.0 45.0)
  end
  begin
     id 29
     name rfingers
     direction -1 -4.49023e-011 -6.9669e-026   
     length 0.466345   
     axis 4.44383e-014 -90 -90   XYZ
    dof rx
    limits (0.0 90.0)
  end
  begin
     id 30
     name rthumb
     direction -0.707107 -6.34926e-011 0.707107   
     length 0.669581   
     axis -90 -45 5.4397e-014   XYZ
    dof rx rz
    limits (-45.0 45.0)
           (-45.0 45.0)
  end
:hierarchy
  begin
    root lhipjoint rhipjoint lowerback
    lhipjoint lfemur
    lfemur ltibia
    ltibia lfoot
    lfoot ltoes
    rhipjoint rfemur
    rfemur rtibia
    rtibia rfoot
    rfoot rtoes
    lowerback upperback
    upperback thorax
    thorax lowerneck lclavicle rclavicle
    lowerneck upperneck
    upperneck head
    lclavicle lhumerus
    lhumerus lradius
    lradius lwrist
    lwrist lhand lthumb
    lhand lfingers
    rclavicle rhumerus
    rhumerus rradius
    rradius rwrist
    rwrist rhand rthumb
    rhand rfingers
  end

#!OML:ASF H:\SkateBoarding\Project 1\Capture day 1\Session 1\Skater.ASF
:FULLY-SPECIFIED
:DEGREES
16
root 0.850404 19.264 -32.7083 -34.5946 75.2164 -38.4742
lowerback 10.9937 -3.38853 -6.31497
upperback -0.122466 -5.31472 -0.349861
thorax -5.74989 -2.42364 3.98654
lowerneck -13.6913 -6.24198 -2.95957
upperneck 39.0625 -10.6773 7.8797
head 17.2757 -3.40664 2.21465
rclavicle -1.37161e-013 -2.38542e-014
rhumerus -50.1492 31.1379 -86.6852
rradius 78.2691
rwrist -13.1174
rhand -42.2824 6.84573
rfingers 7.12502
rthumb -15.1672 -22.5784
lclavicle -1.37161e-013 -2.38542e-014
lhumerus -11.2508 -16.0302 81.9498
lradius 56.0633
lwrist 27.0152
lhand -36.4612 16.0483
lfingers 7.12502
lthumb -9.55481 45.8116
rfemur -22.8418 -7.02317 28.4827
rtibia 47.0844
rfoot -32.6193 2.43874
rtoes -1.96264
lfemur -14.2879 -7.88424 -3.77738
ltibia 47.5767
lfoot -35.9936 3.30011
ltoes -15.6003
17
root 0.879254 19.2943 -32.3581 -35.3125 75.6302 -39.3621
lowerback 10.74 -3.42141 -6.44782
upperback -0.184669 -5.36102 -0.369971
thorax -5.65857 -2.446 4.02779
lowerneck -13.4997 -6.26757 -3.06701
upperneck 38.9344 -10.5943 7.70698
head 17.1357 -3.42339 2.17033
rclavicle -6.50026e-014 -2.54444e-014
rhumerus -51.0181 31.0268 -87.5354
rradius 77.8988
rwrist -13.1046
rhand -41.9086 7.1081
rfingers 7.12502
rthumb -14.8071 -22.3429
lclavicle -6.50026e-014 -2.54444e-014
lhumerus -11.8412 -15.442 82.184
lradius 54.9657
lwrist 27.5403
lhand -36.2299 16.6406
lfingers 7.12502
lthumb -9.3316 46.4141
rfemur -22.5586 -6.53262 28.2263
rtibia 46.5996
rfoot -31.6162 3.51794
rtoes -0.615196
lfemur -14.2834 -8.17341 -3.66962
ltibia 47.1708
lfoot -35.8647 3.62673
ltoes -16.1812
18
root 0.909468 19.3186 -32.009 -35.998 76.0077 -40.2607
lowerback 10.4224 -3.43833 -6.54328
upperback -0.259333 -5.37707 -0.396146
thorax -5.55152 -2.45527 4.03322
lowerneck -13.3115 -6.31273 -3.14154
upperneck 38.8372 -10.5527 7.53074
head 17.0164 -3.45039 2.11264
rclavicle -1.72943e-014 -7.95139e-015
rhumerus -51.8492 30.8529 -88.3739
rradius 77.4478
rwrist -13.0497
rhand -41.4869 7.37232
rfingers 7.12502
rthumb -14.4008 -22.1081
lclavicle -1.72943e-014 -7.95139e-015
lhumerus -12.4368 -14.9661 82.3902
lradius 53.8471
lwrist 28.0424
lhand -35.9368 17.2406
lfingers 7.12502
lthumb -9.04879 47.0265
rfemur -22.3101 -6.11498 28.0343
rtibia 46.1014
rfoot -30.7367 4.45822
rtoes 0.49717
lfemur -14.3082 -8.44175 -3.53038
ltibia 46.7542
lfoot -35.7557 3.78832
ltoes -16.4085
19
root 0.941174 19.3382 -31.661 -36.6503 76.3512 -41.1595
lowerback 10.0553 -3.44856 -6.60533
upperback -0.347465 -5.37678 -0.427122
thorax -5.43602 -2.45774 4.00969
lowerneck -13.1262 -6.37288 -3.17892
upperneck 38.7758 -10.545 7.34659
head 16.9183 -3.48466 2.04045
rclavicle 5.18828e-014 -4.77083e-015
rhumerus -52.6352 30.6378 -89.2035
rradius 76.9137
rwrist -12.9333
rhand -41.0138 7.69306
rfingers 7.12502
rthumb -13.9449 -21.8193
lclavicle 5.18828e-014 -4.77083e-015
lhumerus -13.0371 -14.5645 82.5686
lradius 52.6996
lwrist 28.5053
lhand -35.5791 17.8582
lfingers 7.12502
lthumb -8.70368 47.6588
rfemur -22.0962 -5.78919 27.9191
rtibia 45.5867
rfoot -30.0605 5.1717
rtoes 1.63454
lfemur -14.3536 -8.69642 -3.37316
ltibia 46.3291
lfoot -35.6666 3.82655
ltoes -16.3386
20
root 0.97458 19.3546 -31.3138 -37.1944 76.6881 -41.9591
lowerback 9.6634 -3.44415 -6.6659
upperback -0.442153 -5.35543 -0.478116
thorax -5.31773 -2.44994 3.9603
lowerneck -12.9518 -6.45621 -3.20087
upperneck 38.7493 -10.5889 7.1854
head 16.8486 -3.53231 1.96786
rclavicle 6.57977e-014 1.90833e-014
rhumerus -53.3719 30.3448 -90.0155
rradius 76.2975
rwrist -12.734
rhand -40.4988 8.02083
rfingers 7.12502
rthumb -13.4486 -21.525
lclavicle 6.57977e-014 1.90833e-014
lhumerus -13.6296 -14.2576 82.7214
lradius 51.5215
lwrist 28.9476
lhand -35.1438 18.4877
lfingers 7.12502
lthumb -8.28354 48.3053
rfemur -21.9086 -5.60903 27.849
rtibia 45.0586
rfoot -29.6151 5.62646
rtoes 2.51053
lfemur -14.3963 -8.95113 -3.24463
ltibia 45.8902
lfoot -35.6055 3.77299
ltoes -16.0536
21
root 1.00977 19.3714 -30.9674 -37.6323 77.0143 -42.647
lowerback 9.26817 -3.42598 -6.72109
upperback -0.53904 -5.31502 -0.550347
thorax -5.20428 -2.43265 3.88374
lowerneck -12.79 -6.56019 -3.20654
upperneck 38.752 -10.6819 7.05105
head 16.8042 -3.59206 1.89649
rclavicle -3.79679e-014 -1.74931e-014
rhumerus -54.0502 29.9633 -90.8084
rradius 75.5958
rwrist -12.4329
rhand -39.9474 8.41469
rfingers 7.12502
rthumb -12.9171 -21.1655
lclavicle -3.79679e-014 -1.74931e-014
lhumerus -14.2114 -14.031 82.8451
lradius 50.3198
lwrist 29.4046
lhand -34.6394 19.148
lfingers 7.12502
lthumb -7.79677 48.9843
rfemur -21.7378 -5.53385 27.8309
rtibia 44.5166
rfoot -29.4632 5.74453
rtoes 2.88229
lfemur -14.4183 -9.18483 -3.15044
ltibia 45.4313
lfoot -35.5262 3.72595
ltoes -15.7094
22
root 1.04643 19.389 -30.6218 -37.9709 77.3321 -43.2102
lowerback 8.89472 -3.39724 -6.77638
upperback -0.631622 -5.26178 -0.640103
thorax -5.10134 -2.40855 3.78959
lowerneck -12.6476 -6.68055 -3.21041
upperneck 38.781 -10.8142 6.94599
head 16.7853 -3.66183 1.83123
rclavicle -4.09496e-014 0
rhumerus -54.6601 29.51 -91.5751
rradius 74.8064
rwrist -12.024
rhand -39.3775 8.85705
rfingers 7.12502
rthumb -12.3676 -20.7571
lclavicle -4.09496e-014 0
lhumerus -14.7737 -13.8503 82.946
lradius 49.0919
lwrist 29.899
lhand -34.057 19.842
lfingers 7.12502
lthumb -7.23456 49.6984
rfemur -21.5735 -5.54922 27.8556
rtibia 43.9687
rfoot -29.5474 5.54475
rtoes 2.87969
lfemur -14.3957 -9.44189 -3.10424
ltibia 44.947
lfoot -35.4673 3.73838
ltoes -15.3909
23
root 1.08416 19.4087 -30.2772 -38.1235 77.6352 -43.5569
lowerback 8.55252 -3.35582 -6.84251
upperback -0.720828 -5.1947 -0.744394
thorax -5.01413 -2.37658 3.68769
lowerneck -12.5244 -6.81125 -3.22728
upperneck 38.8296 -10.9719 6.86994
head 16.788 -3.73851 1.7767
rclavicle 7.61345e-014 4.29375e-014
rhumerus -55.1936 28.9995 -92.305
rradius 73.9262
rwrist -11.5167
rhand -38.8097 9.29538
rfingers 7.12502
rthumb -11.8201 -20.351
lclavicle 7.61345e-014 4.29375e-014
lhumerus -15.3104 -13.6695 83.0367
lradius 47.8316
lwrist 30.4352
lhand -33.4064 20.5567
lfingers 7.12502
lthumb -6.60656 50.4337
rfemur -21.4143 -5.58716 27.8966
rtibia 43.4209
rfoot -29.8303 5.03425
rtoes 2.48333
lfemur -14.3262 -9.63938 -3.10815
ltibia 44.4386
lfoot -35.3806 3.77963
ltoes -15.1036
24
root 1.12229 19.4299 -29.9339 -38.1061 77.9047 -43.7032
lowerback 8.24365 -3.31189 -6.9111
upperback -0.802787 -5.12577 -0.845395
thorax -4.93747 -2.34311 3.59327
lowerneck -12.4293 -6.93888 -3.27526
upperneck 38.8947 -11.1269 6.81533
head 16.8112 -3.8144 1.73721
rclavicle -1.19668e-013 -1.59028e-015
rhumerus -55.6357 28.4861 -92.99
rradius 72.9558
rwrist -10.9333
rhand -38.2554 9.73338
rfingers 7.12502
rthumb -11.2856 -19.943
lclavicle -1.19668e-013 -1.59028e-015
lhumerus -15.8224 -13.4229 83.1172
lradius 46.5477
lwrist 31.0065
lhand -32.6861 21.292
lfingers 7.12502
lthumb -5.9112 51.1896
rfemur -21.2612 -5.61087 27.9539
rtibia 42.8854
rfoot -30.2344 4.27119
rtoes 1.62185
lfemur -14.2118 -9.77756 -3.14554
ltibia 43.9144
lfoot -35.2745 3.87381
ltoes -14.9126
25
root 1.16011 19.4515 -29.592 -37.8159 78.1181 -43.5477
lowerback 7.96298 -3.26003 -6.99038
upperback -0.878107 -5.04816 -0.938939
thorax -4.86886 -2.30466 3.51406
lowerneck -12.3615 -7.0561 -3.35248
upperneck 38.9693 -11.2654 6.77491
head 16.8489 -3.88502 1.71139
rclavicle 3.06128e-014 -3.18055e-015
rhumerus -55.9823 27.9843 -93.6286
rradius 71.8977
rwrist -10.3021
rhand -37.7313 10.1116
rfingers 7.12502
rthumb -10.7801 -19.5918
lclavicle 3.06128e-014 -3.18055e-015
lhumerus -16.3095 -13.0785 83.187
lradius 45.2386
lwrist 31.5813
lhand -31.9066 22.0198
lfingers 7.12502
lthumb -5.15857 51.937
rfemur -21.1156 -5.55763 28.0076
rtibia 42.3752
rfoot -30.6919 3.35596
rtoes 0.635978
lfemur -14.0479 -9.84625 -3.21535
ltibia 43.386
lfoot -35.1693 3.98556
ltoes -14.7174
26
root 1.19717 19.4726 -29.2519 -37.1694 78.2666 -43.0143
lowerback 7.70398 -3.1977 -7.08263
upperback -0.949957 -4.95843 -1.0255
thorax -4.8083 -2.25942 3.45012
lowerneck -12.3209 -7.1608 -3.44923
upperneck 39.0488 -11.382 6.73568
head 16.8961 -3.94875 1.69254
rclavicle -3.22031e-014 2.54444e-014
rhumerus -56.2319 27.5001 -94.2186
rradius 70.7525
rwrist -9.64518
rhand -37.2477 10.4342
rfingers 7.12502
rthumb -10.3136 -19.2929
lclavicle -3.22031e-014 2.54444e-014
lhumerus -16.7739 -12.6147 83.2441
lradius 43.9036
lwrist 32.1122
lhand -31.0934 22.7244
lfingers 7.12502
lthumb -4.37337 52.6592
rfemur -20.9817 -5.38276 28.0349
rtibia 41.9007
rfoot -31.1558 2.40714
rtoes -0.560633
lfemur -13.8475 -9.8302 -3.32548
ltibia 42.87
lfoot -35.0805 4.15196
ltoes -14.6339
27
root 1.23302 19.4917 -28.9142 -36.1872 78.3355 -42.1262
lowerback 7.46543 -3.1348 -7.17882
upperback -1.022 -4.86878 -1.09439
thorax -4.75753 -2.21353 3.40878
lowerneck -12.2994 -7.24176 -3.56443
upperneck 39.1298 -11.4533 6.68238
head 16.9453 -3.99858 1.67811
rclavicle -4.69132e-014 1.74931e-014
rhumerus -56.391 27.0694 -94.7649
rradius 69.531
rwrist -8.99946
rhand -36.8018 10.6679
rfingers 7.12502
rthumb -9.88342 -19.0801
lclavicle -4.69132e-014 1.74931e-014
lhumerus -17.2241 -11.9738 83.287
lradius 42.5371
lwrist 32.5452
lhand -30.2487 23.3889
lfingers 7.12502
lthumb -3.55762 53.339
rfemur -20.8597 -5.097 28.0326
rtibia 41.4711
rfoot -31.5722 1.53803
rtoes -1.48947
lfemur -13.6119 -9.73576 -3.46304
ltibia 42.3765
lfoot -35.0215 4.32145
ltoes -14.5566
